PathFileType	4	(X/Y/Z)	C:/Users/beibeiliu/ov580/test_trc\sequence.29_training_dense_left.trc
DataRate	CameraRate	NumFrames	NumMarkers	Units	OrigDataRate	OrigDataStartFrame	OrigNumFrames
120	120	24	19	mm	120	126	200
Frame#	Time	ThumbCMC			ThumbMCP			ThumbIP			ThumbTip			IndexMCP			IndexPIP			IndexTip			MiddleMCP			MiddlePIP			MiddleTip			RingMCP			RingPIP			RingTip			PinkyMCP			PinkyPIP			PinkyTip			BackHand1			BackHand2			BackHand3	
		X0	Y0	Z0	X1	Y1	Z1	X2	Y2	Z2	X3	Y3	Z3	X4	Y4	Z4	X5	Y5	Z5	X6	Y6	Z6	X7	Y7	Z7	X8	Y8	Z8	X9	Y9	Z9	X10	Y10	Z10	X11	Y11	Z11	X12	Y12	Z12	X13	Y13	Z13	X14	Y14	Z14	X15	Y15	Z15	X16	Y16	Z16	X17	Y17	Z17	X18	Y18	Z18	
125	1.04167	-145.018	11.7583	129.253	-118.335	6.08642	120.305	-96.982	7.59102	103.04	-82.0864	7.09541	86.3316	-141.013	18.2328	57.2609	-127.232	16.2416	33.2832	-113.191	5.53901	9.9981	-153.574	2.41349	40.4338	-141.637	-6.12073	17.2259	-123.175	-17.7099	-4.64722	-167.213	-17.5634	43.1398	-150.385	-21.9928	18.1163	-135.01	-34.4093	-1.00903	-176.948	-37.1784	53.7237	-165.163	-43.1192	30.6731	-152.759	-53.5241	11.0054	-191.695	-11.0663	87.5163	-202.561	-8.66493	114.197	-177.527	13.7272	110.243	
126	1.05	-143.702	10.9822	130.214	-120.392	4.79823	119.885	-95.095	9.0219	100.888	-81.0063	7.6392	85.5532	-138.687	19.2983	53.3932	-125.759	16.4089	33.0232	-112.073	3.86104	8.58806	-156.097	1.18076	45.6593	-141.15	-1.6718	21.4117	-123.091	-13.4084	-1.24814	-164.752	-17.2395	39.8711	-151.356	-23.2211	20.6686	-134.724	-31.9451	1.97354	-178.041	-37.5175	53.1087	-165.728	-40.8806	34.0181	-150.65	-53.0255	12.3278	-190.689	-8.55735	86.12	-201.837	-10.2676	118.851	-178.613	13.5281	107.379	
127	1.05833	-144.097	11.4022	130.196	-115.696	6.56045	121.065	-97.7135	6.45686	101.167	-77.5988	8.44783	82.7803	-139.46	16.559	53.4303	-125.199	15.51	33.7957	-111.051	4.46601	8.74743	-151.385	3.59124	41.879	-138.928	-4.59916	18.6951	-121.264	-17.2357	-3.76494	-163.349	-16.2705	41.6869	-152.231	-24.8124	21.1281	-130.369	-31.5153	-0.223822	-176.836	-38.1629	52.4319	-166.678	-46.4937	32.4048	-149.423	-53.3689	11.7216	-190.332	-8.68543	91.2827	-201.275	-8.52766	114.003	-178.076	12.5654	106.417	
128	1.06667	-144.187	10.4265	130.113	-116.136	5.5854	119.635	-96.2339	6.26289	99.7333	-79.6847	6.37289	85.8734	-140.536	16.1212	55.9586	-124.728	14.0229	31.6286	-110.386	8.04484	13.8639	-152.224	0.758398	40.905	-138.613	-3.44135	18.0069	-122.249	-18.4081	-2.95332	-163.194	-17.4337	39.8906	-152.507	-23.9134	21.5394	-130.794	-33.1569	-0.487573	-174.931	-35.9451	54.5006	-165.094	-46.526	31.0428	-146.622	-52.7609	10.2773	-189.114	-10.447	88.2631	-202.607	-9.8016	116.361	-177.408	14.5848	110.542	
129	1.075	-142.827	9.32646	129.992	-116.305	2.74476	118.107	-94.9529	4.93245	97.3201	-82.2493	4.01707	85.5147	-137.943	17.6748	58.3516	-122.081	14.0309	30.7954	-110.032	6.88197	13.3565	-153.945	-1.71301	43.4259	-137.218	-5.55131	18.3131	-121.469	-17.8973	-3.40302	-163.023	-18.9451	41.199	-151.731	-25.7725	19.724	-131.888	-34.9194	0.531691	-175.933	-38.2906	52.697	-163.018	-44.4321	31.4853	-147.125	-52.2239	9.75108	-189.364	-10.6099	89.0814	-200.441	-8.91724	116.323	-174.172	13.9047	108.987	
130	1.08333	-142.539	9.00322	127.852	-114.462	4.85411	115.946	-94.261	4.55118	98.8536	-78.3996	5.78699	84.9765	-137.539	17.6432	58.4259	-124.647	13.0145	31.3709	-109.752	2.67781	10.1406	-151.199	1.16473	43.4005	-138.688	-5.24182	19.5493	-121.138	-16.6649	-1.63737	-165.321	-18.8098	44.9943	-146.952	-22.7008	18.9399	-128.568	-33.7755	-0.547796	-172.665	-36.6463	51.4038	-161.885	-43.5882	32.5133	-146.928	-53.7924	11.4056	-189.609	-11.5493	85.1867	-199.334	-12.4066	115.756	-176.045	12.728	111.233	
131	1.09167	-144.394	6.98638	129.316	-116.387	2.95255	116.922	-95.5253	4.9515	101.923	-79.6566	3.59753	84.6761	-137.494	15.8624	55.1037	-125.609	13.5119	33.9097	-112.888	1.17158	11.9855	-152.072	0.421181	41.4099	-138.089	-5.98879	18.5107	-120.518	-20.0948	-4.19253	-163.186	-19.4358	43.1208	-150.177	-26.0997	18.3105	-132.433	-36.3911	0.929734	-171.701	-35.7126	53.0559	-162.165	-46.6275	31.8726	-146.953	-56.614	8.74965	-190.556	-14.3456	88.1356	-199.869	-10.0832	115.517	-177.12	10.7271	110.863	
132	1.1	-143.939	7.46845	127.566	-113.792	3.99159	117.077	-95.1264	5.35802	99.049	-80.5805	4.12029	85.9997	-139.129	13.1966	55.2871	-126.419	9.96261	30.9288	-112.04	2.32703	11.3684	-151.492	-1.07671	40.4436	-138.921	-9.07535	17.1425	-119.548	-21.5326	-5.77326	-160.654	-17.0536	42.0481	-148.96	-27.2295	17.668	-130.622	-33.6988	0.500421	-171.793	-36.7008	52.4498	-160.498	-46.4738	29.9002	-145.582	-57.142	9.91557	-186.718	-13.8627	86.5009	-200.641	-11.7306	118.573	-174.491	12.51	105.847	
133	1.10833	-141.823	7.99058	127.953	-116.187	2.82544	119.687	-97.1556	2.28252	100.159	-78.3196	3.61629	82.504	-138.739	13.4527	56.8096	-125.914	8.13773	32.197	-110.342	0.266104	9.98442	-152.73	-3.54449	42.0895	-136.919	-7.6407	18.8331	-122.685	-22.5934	-3.71459	-166.235	-22.7867	44.1905	-149.958	-26.3923	20.8412	-129.547	-35.8515	-0.581523	-174.825	-41.6919	52.0312	-164.398	-50.0284	30.9725	-148.251	-55.8165	12.4116	-190.801	-14.2917	89.9616	-201.626	-14.057	116.736	-177.864	8.82343	108.295	
134	1.11667	-144.233	4.96623	130.256	-117.15	-0.042771	114.516	-97.6112	1.20497	98.1176	-80.7829	1.20655	83.6555	-139.678	12.2875	56.2423	-121.077	11.303	30.8732	-112.155	-1.15559	11.6247	-151.447	-1.7906	42.5405	-140.318	-8.92882	19.8069	-118.145	-20.4728	-3.72063	-165.407	-22.4235	43.2464	-149.344	-26.6455	19.5305	-130.365	-38.894	-1.53448	-174.736	-41.4682	48.3778	-160.69	-47.0747	29.1919	-145.946	-54.7785	10.6808	-187.894	-16.9089	85.7193	-199.91	-12.3612	112.531	-176.357	10.5125	106.364	
135	1.125	-145.06	6.16632	131.998	-117.077	1.2159	119.016	-96.152	1.8168	98.3797	-78.1985	3.53527	85.183	-137.393	12.844	52.4284	-123.802	8.05375	29.2688	-110.886	-1.92385	9.05128	-151.674	-1.77652	42.6551	-138.269	-6.68636	20.1401	-120.095	-23.9031	-6.40458	-160.651	-18.3805	41.8635	-149.203	-28.3358	16.7191	-129.069	-35.8653	-0.464655	-173.283	-39.5968	53.7206	-161.327	-48.3117	28.4682	-147.871	-56.2924	9.62405	-188.17	-14.1736	87.6328	-201.295	-17.1466	111.159	-176.035	9.89259	107.323	
136	1.13333	-144.443	4.01558	126.218	-115.37	1.01857	115.37	-95.6146	2.75928	102.404	-77.6616	3.60994	84.5113	-136.397	13.3349	52.4981	-124.519	8.62391	29.9737	-111.625	-1.09637	10.3657	-150.918	-1.58717	41.7613	-136.165	-7.33463	17.7799	-116.063	-20.111	-4.57735	-162.478	-21.6585	43.4964	-150.15	-27.5312	21.2505	-128.989	-39.3261	-0.844904	-171.855	-40.7621	48.4161	-162.378	-51.3173	30.0164	-144.035	-58.2637	8.22417	-187.181	-14.3557	90.068	-201.35	-16.4406	112.511	-176.671	8.08126	106.102	
137	1.14167	-145.026	4.65003	126.734	-116.388	0.971896	118.689	-96.4203	0.885628	98.4204	-78.9421	1.55334	82.8527	-138.154	13.6862	56.7801	-120.606	12.1217	31.5075	-106.756	2.51696	11.1246	-150.982	-2.26025	45.8076	-135.396	-7.53207	17.5001	-119.173	-22.6254	-4.09698	-164.089	-23.1986	44.4255	-150.958	-30.9489	20.3769	-127.38	-38.5336	0.0594214	-170.939	-40.4977	50.5329	-159.553	-51.0714	29.8422	-146.99	-57.0169	11.8174	-188.106	-14.3785	88.9303	-199.836	-16.8006	114.9	-175.201	10.8528	106.881	
138	1.15	-144.57	3.88679	130.711	-117.063	-0.92063	118.412	-92.9043	2.28651	97.6731	-77.6162	1.98249	84.4381	-136.818	13.9896	54.9928	-122.419	9.29882	29.8702	-105.617	1.11634	9.67747	-151.636	-3.4143	41.4949	-135.263	-9.10765	17.5416	-118.652	-21.3987	-3.01994	-162.873	-21.1296	45.6233	-148.438	-28.2083	21.0012	-131.783	-41.0891	1.96146	-168.715	-38.3182	50.2645	-159.29	-50.6721	29.6327	-146.458	-56.6377	12.727	-188.45	-15.1174	84.7342	-199.589	-15.3253	117.438	-173.238	10.9996	106.439	
139	1.15833	-140.977	7.08025	129.379	-114.406	1.56532	116.287	-95.5196	1.58355	97.1998	-81.7012	1.43024	83.4888	-134.658	16.3876	55.2765	-119.615	12.0017	30.5917	-109.346	1.10922	12.136	-152.236	-3.89622	39.8068	-138.638	-7.98328	20.3953	-118.956	-19.1039	-1.40774	-161.354	-21.232	43.0691	-147.816	-29.4938	18.1625	-127.87	-37.3453	0.810674	-171.969	-39.0432	54.6826	-161.261	-49.1687	32.3441	-143.511	-59.4204	11.9089	-187.404	-13.8928	90.6339	-199.064	-14.2201	112.091	-175.589	8.97104	109.057	
140	1.16667	-142.871	7.32974	128.382	-115.27	2.45439	118.438	-94.8954	3.4621	98.8668	-77.7195	3.66551	81.2945	-136.713	13.9519	54.1662	-121.699	10.7041	29.295	-110.221	1.31165	10.3995	-150.966	-1.29002	44.6011	-138.702	-8.61025	19.0814	-117.129	-20.063	-3.43166	-161.191	-18.3633	43.8621	-145.963	-26.313	17.9617	-127.081	-35.3421	1.3508	-171.138	-38.7115	52.1591	-160.496	-48.0484	31.738	-144.531	-54.023	14.2503	-186.647	-13.3883	89.4471	-199.113	-13.4313	117.883	-173.653	14.1801	107.019	
141	1.175	-142.393	8.63614	130.597	-117.038	1.57986	116.851	-94.2508	5.71333	101.247	-81.6962	3.29347	85.1806	-136.247	16.4423	57.6743	-123.686	12.8602	34.241	-107.269	4.51918	10.3779	-153.297	-1.83468	44.6463	-134.638	-5.73212	17.1904	-118.507	-16.8011	-2.37646	-162.737	-20.9448	41.2351	-149.319	-28.3711	20.5616	-131.429	-37.7228	3.09151	-172.645	-39.1546	49.1114	-162.868	-47.133	32.864	-143.962	-54.952	9.82651	-185.843	-13.3925	86.0179	-199.852	-13.3814	113.016	-175.203	10.0451	108.395	
142	1.18333	-143.459	8.9864	133.521	-117.678	2.11687	117.845	-95.919	3.82041	100.423	-81.7641	2.13845	83.5424	-139.421	15.7424	57.3611	-126.377	9.80597	32.2536	-112.839	1.42347	12.7957	-151.317	-1.04615	43.4657	-139.656	-8.89779	19.2817	-119.992	-22.4133	-3.53139	-162.869	-19.2015	45.3288	-150.741	-29.2376	21.4958	-126.519	-35.3102	1.98097	-174.343	-41.0123	50.1564	-161.979	-46.0958	33.0351	-149.009	-57.8008	11.7546	-187.836	-13.1805	88.8149	-202.399	-15.2018	113.072	-178.483	9.44213	109.279	
143	1.19167	-146.195	7.46989	131.347	-120.873	-0.808463	116.798	-99.1536	1.70315	100.942	-84.1234	0.0571986	83.0158	-140.96	12.86	57.3649	-128.622	9.11447	33.6794	-113.152	-0.118332	13.1884	-156.204	-5.92969	41.8456	-141.533	-12.7509	18.2759	-120.871	-21.8818	-2.51056	-166.833	-22.5914	46.2567	-152.186	-31.9439	19.5835	-135.375	-38.2954	4.43556	-177.737	-43.1593	55.8089	-164.913	-48.5513	33.8177	-149.585	-60.4555	10.9264	-190.105	-13.0792	88.0158	-204.533	-17.8488	115.358	-179.857	6.1235	109.806	
144	1.2	-146.951	1.01593	134.038	-119.246	-3.63319	118.391	-99.5996	-3.97243	100.829	-82.2575	-4.18502	83.4242	-142.593	9.51026	59.7885	-126.316	6.78102	36.0134	-111.589	-2.72209	13.219	-158.705	-7.60137	46.395	-145.467	-13.5957	23.1679	-123.375	-23.8167	-0.492296	-167.196	-23.6357	44.0763	-158.053	-31.0501	25.0309	-138.57	-42.359	1.62036	-178.737	-41.9802	57.4216	-169.346	-51.9742	33.1766	-160.079	-59.9252	14.1105	-191.951	-15.5833	91.6957	-206.147	-17.9795	118.699	-178.052	5.45102	110.591	
145	1.20833	-140.803	-5.66189	134.446	-117.602	-15.3299	120.779	-97.2724	-17.1667	100.927	-82.3451	-19.1167	85.0036	-137.626	4.59741	60.1041	-126.208	1.6978	39.5076	-114.084	-6.54563	18.423	-158.29	-9.78444	50.2482	-146.753	-15.8653	25.2398	-126.197	-26.4273	-0.850182	-169.813	-22.8435	51.5349	-161.124	-32.0999	24.6211	-143.121	-42.509	2.93786	-186.189	-41.8929	53.5023	-178.689	-51.0256	34.6587	-168.876	-59.9431	12.1333	-192.99	-18.4823	95.6547	-206.287	-17.9175	122.013	-174.601	2.44166	117.8	
146	1.21667	-141.104	-15.373	137.672	-116.754	-25.7507	122.713	-93.0943	-26.9389	108.827	-83.0455	-31.6664	88.0334	-135.674	0.795887	64.7159	-121.54	-0.238823	44.9552	-109.942	-11.0341	16.5389	-153.782	-7.01605	54.6954	-144.899	-14.9707	27.8887	-129.527	-26.8279	3.86891	-169.427	-20.9579	50.6603	-161.011	-29.3701	24.061	-150.304	-39.9009	6.48318	-187.287	-39.4124	57.9281	-181.168	-44.3924	36.8083	-172.989	-52.6552	11.6106	-189.748	-16.8177	100.358	-201.879	-16.1896	125.169	-172.693	0.93588	121.148	
147	1.225	-137.291	-17.0457	138.839	-111.829	-27.0062	127.42	-95.4109	-30.3338	107.38	-77.429	-32.9831	90.6545	-131.993	0.954986	69.259	-120.845	-2.66716	45.1702	-111.184	-11.5777	21.7326	-154.446	-10.6074	54.3003	-143.801	-14.8103	30.7325	-130.156	-27.0144	6.55065	-171.157	-23.5713	54.3387	-159.917	-28.8341	28.1445	-149.175	-41.9427	4.35835	-188.97	-39.3167	59.3074	-180.186	-45.4064	35.5325	-174.612	-54.3135	11.6859	-189.586	-18.1219	98.921	-199.008	-17.3004	131.995	-166.142	-1.06129	125.587	
148	1.23333	-139.263	-12.8515	140.085	-113.955	-22.828	123.637	-95.3962	-25.0322	107.507	-77.0067	-28.1884	91.4466	-137.979	0.149177	66.9211	-126.659	-3.61591	41.8476	-115.359	-14.2552	16.9729	-154.599	-9.26284	54.2088	-143.928	-16.092	27.6133	-131.852	-31.3657	2.80644	-172.634	-26.4823	50.8169	-161.548	-31.4017	27.1234	-144.796	-41.9018	4.72858	-187.066	-41.9268	58.9074	-179.778	-47.9502	34.5694	-173.162	-58.6656	10.5292	-190.731	-19.9032	97.1357	-200.433	-17.3422	130.929	-171.22	-0.72142	121.034	
